<?xml version="1.0" standalone="no"?>
<!DOCTYPE svg PUBLIC "-//W3C//DTD SVG 20010904//EN"
 "http://www.w3.org/TR/2001/REC-SVG-20010904/DTD/svg10.dtd">
<svg version="1.0" xmlns="http://www.w3.org/2000/svg"
 width="398.000000pt" height="106.000000pt" viewBox="0 0 398.000000 106.000000"
 preserveAspectRatio="xMidYMid meet">

<g transform="translate(0.000000,106.000000) scale(0.100000,-0.100000)"
fill="#000000" stroke="none">
<path d="M1783 811 c-92 -32 -168 -110 -193 -201 -15 -53 -12 -141 6 -194 22
-64 100 -148 165 -176 113 -48 249 -20 330 68 l42 45 -22 19 c-31 25 -44 23
-69 -11 -30 -41 -98 -71 -162 -71 -214 0 -306 271 -139 413 90 78 226 68 302
-23 26 -30 27 -31 57 -15 l31 16 -20 32 c-24 39 -100 93 -149 107 -54 15 -120
12 -179 -9z"/>
<path d="M2435 813 c-66 -24 -117 -64 -155 -121 -40 -61 -53 -113 -47 -192 12
-166 131 -280 295 -280 87 0 140 22 197 80 22 22 42 40 45 40 3 0 6 -12 7 -27
2 -89 0 -85 36 -81 l32 3 0 180 c-1 166 -3 184 -24 232 -26 59 -87 120 -153
154 -59 30 -165 36 -233 12z m159 -64 c167 -46 231 -248 120 -378 -102 -119
-291 -106 -370 27 -38 63 -47 109 -33 174 28 129 160 211 283 177z"/>
<path d="M3195 820 c-115 -17 -186 -112 -156 -210 15 -50 59 -86 127 -105 29
-9 79 -23 111 -31 58 -17 103 -51 103 -79 0 -32 -32 -77 -65 -91 -45 -18 -128
-18 -165 1 -15 8 -38 27 -49 42 -19 23 -26 25 -48 17 -38 -13 -38 -27 -1 -70
46 -52 99 -74 181 -74 133 0 217 66 217 172 0 88 -46 126 -204 169 -97 26
-136 53 -136 94 0 61 48 95 132 95 55 0 95 -18 122 -55 13 -18 15 -18 40 -2
31 21 32 27 6 59 -38 49 -134 79 -215 68z"/>
<path d="M170 808 c1 -34 202 -545 224 -567 17 -16 36 -24 65 -25 73 -1 72 -4
226 412 36 96 65 178 65 183 0 6 -17 9 -37 7 l-38 -3 -85 -230 c-47 -127 -90
-244 -95 -260 -8 -22 -17 -30 -34 -30 -21 0 -31 22 -120 260 l-96 260 -38 3
c-25 2 -37 -1 -37 -10z"/>
<path d="M877 814 c-14 -14 -8 -327 8 -387 36 -140 124 -209 265 -208 72 0
123 16 168 52 l27 21 5 -39 c5 -36 7 -38 40 -38 l35 0 0 300 0 300 -35 0 -35
0 -5 -185 c-6 -202 -14 -232 -77 -292 -86 -82 -222 -60 -288 46 l-30 49 -5
191 -5 191 -30 3 c-17 2 -34 0 -38 -4z"/>
<path d="M3635 790 c-23 -25 -13 -67 20 -82 52 -23 100 46 59 86 -21 22 -57
20 -79 -4z"/>
</g>
</svg>
